<mxfile host="app.diagrams.net" agent="Mozilla/5.0 (Windows NT 10.0; Win64; x64; rv:130.0) Gecko/20100101 Firefox/130.0" version="24.7.17">
  <diagram name="Página-1" id="QtgI0gfaewEOV8FghDvC">
    <mxGraphModel dx="1450" dy="938" grid="0" gridSize="10" guides="1" tooltips="1" connect="1" arrows="1" fold="1" page="0" pageScale="1" pageWidth="827" pageHeight="1169" math="0" shadow="0">
      <root>
        <mxCell id="0" />
        <mxCell id="1" parent="0" />
        <mxCell id="ylt83j8UUivnQJKnm8Q9-1" value="Usuário" style="rounded=0;whiteSpace=wrap;html=1;" parent="1" vertex="1">
          <mxGeometry x="-57" y="-100" width="120" height="60" as="geometry" />
        </mxCell>
        <mxCell id="ylt83j8UUivnQJKnm8Q9-2" value="&lt;span id=&quot;docs-internal-guid-8334b052-7fff-6b84-31c7-66897243625e&quot; style=&quot;font-size: 11pt; font-family: Arial, sans-serif; color: rgb(0, 0, 0); background-color: transparent; font-style: normal; font-variant: normal; text-decoration: none; vertical-align: baseline; white-space: pre-wrap;&quot;&gt;Interface Web&lt;/span&gt;" style="rounded=0;whiteSpace=wrap;html=1;" parent="1" vertex="1">
          <mxGeometry x="208" y="-100" width="120" height="60" as="geometry" />
        </mxCell>
        <mxCell id="ylt83j8UUivnQJKnm8Q9-3" value="&lt;font style=&quot;font-size: 14.6667px;&quot;&gt;&lt;span id=&quot;docs-internal-guid-62907f92-7fff-b330-291e-c9be8f43d88e&quot; style=&quot;font-family: Arial, sans-serif; color: rgb(0, 0, 0); background-color: transparent; font-style: normal; font-variant: normal; text-decoration: none; vertical-align: baseline; white-space: pre-wrap;&quot;&gt;Servidor de Aplicação&lt;/span&gt;&lt;/font&gt;" style="rounded=0;whiteSpace=wrap;html=1;" parent="1" vertex="1">
          <mxGeometry x="488" y="-100" width="120" height="60" as="geometry" />
        </mxCell>
        <mxCell id="ylt83j8UUivnQJKnm8Q9-4" value="&lt;font style=&quot;font-size: 14.6667px;&quot;&gt;Base de dados&lt;/font&gt;" style="rounded=0;whiteSpace=wrap;html=1;" parent="1" vertex="1">
          <mxGeometry x="778" y="-100" width="120" height="60" as="geometry" />
        </mxCell>
        <mxCell id="ylt83j8UUivnQJKnm8Q9-5" value="&lt;span id=&quot;docs-internal-guid-81dc1945-7fff-5673-8ec3-521d06308f99&quot; style=&quot;font-size: 11pt; font-family: Arial, sans-serif; color: rgb(0, 0, 0); background-color: transparent; font-style: normal; font-variant: normal; text-decoration: none; vertical-align: baseline; white-space: pre-wrap;&quot;&gt;Sistema de Arquivos&lt;/span&gt;" style="rounded=0;whiteSpace=wrap;html=1;" parent="1" vertex="1">
          <mxGeometry x="1099" y="-100" width="120" height="60" as="geometry" />
        </mxCell>
        <mxCell id="ylt83j8UUivnQJKnm8Q9-7" value="" style="html=1;points=[[0,0,0,0,5],[0,1,0,0,-5],[1,0,0,0,5],[1,1,0,0,-5]];perimeter=orthogonalPerimeter;outlineConnect=0;targetShapes=umlLifeline;portConstraint=eastwest;newEdgeStyle={&quot;curved&quot;:0,&quot;rounded&quot;:0};" parent="1" vertex="1">
          <mxGeometry x="-2" y="16" width="10" height="662" as="geometry" />
        </mxCell>
        <mxCell id="ylt83j8UUivnQJKnm8Q9-13" value="Solicitar página &quot;Adicionar livro&quot;" style="verticalAlign=bottom;startArrow=oval;endArrow=block;startSize=8;curved=0;rounded=0;entryX=0;entryY=0;entryDx=0;entryDy=5;exitX=1;exitY=0;exitDx=0;exitDy=5;exitPerimeter=0;" parent="1" source="ylt83j8UUivnQJKnm8Q9-7" target="ylt83j8UUivnQJKnm8Q9-12" edge="1">
          <mxGeometry relative="1" as="geometry">
            <mxPoint x="190" y="18" as="sourcePoint" />
          </mxGeometry>
        </mxCell>
        <mxCell id="ylt83j8UUivnQJKnm8Q9-15" value="Solicitar formulário." style="verticalAlign=bottom;endArrow=block;curved=0;rounded=0;entryX=0;entryY=0;entryDx=0;entryDy=5;" parent="1" source="ylt83j8UUivnQJKnm8Q9-12" target="ylt83j8UUivnQJKnm8Q9-14" edge="1">
          <mxGeometry relative="1" as="geometry">
            <mxPoint x="478" y="67" as="sourcePoint" />
          </mxGeometry>
        </mxCell>
        <mxCell id="ylt83j8UUivnQJKnm8Q9-16" value="Enviar formulário para &quot;Adicionar livro&quot;." style="verticalAlign=bottom;endArrow=open;dashed=1;endSize=8;curved=0;rounded=0;exitX=0;exitY=1;exitDx=0;exitDy=-5;" parent="1" source="ylt83j8UUivnQJKnm8Q9-14" target="ylt83j8UUivnQJKnm8Q9-12" edge="1">
          <mxGeometry relative="1" as="geometry">
            <mxPoint x="478" y="137" as="targetPoint" />
          </mxGeometry>
        </mxCell>
        <mxCell id="ylt83j8UUivnQJKnm8Q9-18" value="Preencher dados do livro e enviar formulário." style="verticalAlign=bottom;startArrow=oval;endArrow=block;startSize=8;curved=0;rounded=0;entryX=0;entryY=0;entryDx=0;entryDy=5;" parent="1" source="ylt83j8UUivnQJKnm8Q9-7" target="ylt83j8UUivnQJKnm8Q9-17" edge="1">
          <mxGeometry relative="1" as="geometry">
            <mxPoint x="193" y="229" as="sourcePoint" />
          </mxGeometry>
        </mxCell>
        <mxCell id="ylt83j8UUivnQJKnm8Q9-20" value="Enviar dados do livro para validação" style="verticalAlign=bottom;startArrow=oval;endArrow=block;startSize=8;curved=0;rounded=0;entryX=0;entryY=0;entryDx=0;entryDy=5;" parent="1" source="ylt83j8UUivnQJKnm8Q9-17" target="ylt83j8UUivnQJKnm8Q9-19" edge="1">
          <mxGeometry x="0.0036" relative="1" as="geometry">
            <mxPoint x="478" y="302" as="sourcePoint" />
            <mxPoint as="offset" />
          </mxGeometry>
        </mxCell>
        <mxCell id="ylt83j8UUivnQJKnm8Q9-22" value="Validar e armazenar dados do livro" style="verticalAlign=bottom;startArrow=oval;endArrow=block;startSize=8;curved=0;rounded=0;" parent="1" source="ylt83j8UUivnQJKnm8Q9-19" target="ylt83j8UUivnQJKnm8Q9-21" edge="1">
          <mxGeometry relative="1" as="geometry">
            <mxPoint x="695" y="329" as="sourcePoint" />
          </mxGeometry>
        </mxCell>
        <mxCell id="ylt83j8UUivnQJKnm8Q9-23" value="" style="html=1;points=[[0,0,0,0,5],[0,1,0,0,-5],[1,0,0,0,5],[1,1,0,0,-5]];perimeter=orthogonalPerimeter;outlineConnect=0;targetShapes=umlLifeline;portConstraint=eastwest;newEdgeStyle={&quot;curved&quot;:0,&quot;rounded&quot;:0};" parent="1" vertex="1">
          <mxGeometry x="1154" y="449" width="10" height="104" as="geometry" />
        </mxCell>
        <mxCell id="ylt83j8UUivnQJKnm8Q9-25" value="Confirmar armazenamento de arquivos." style="verticalAlign=bottom;endArrow=open;dashed=1;endSize=8;curved=0;rounded=0;exitX=0;exitY=1;exitDx=0;exitDy=-5;" parent="1" source="ylt83j8UUivnQJKnm8Q9-23" target="ylt83j8UUivnQJKnm8Q9-26" edge="1">
          <mxGeometry x="0.0011" relative="1" as="geometry">
            <mxPoint x="1084" y="548" as="targetPoint" />
            <mxPoint as="offset" />
          </mxGeometry>
        </mxCell>
        <mxCell id="ylt83j8UUivnQJKnm8Q9-28" value="Confirmar sucesso da operação." style="verticalAlign=bottom;endArrow=open;dashed=1;endSize=8;curved=0;rounded=0;exitX=0;exitY=1;exitDx=0;exitDy=-5;exitPerimeter=0;" parent="1" edge="1">
          <mxGeometry x="0.0011" relative="1" as="geometry">
            <mxPoint x="547" y="583.0000000000002" as="sourcePoint" />
            <mxPoint x="272" y="582.9999999999998" as="targetPoint" />
            <mxPoint as="offset" />
          </mxGeometry>
        </mxCell>
        <mxCell id="ylt83j8UUivnQJKnm8Q9-29" value="Exibir mensagem de sucesso." style="verticalAlign=bottom;endArrow=open;dashed=1;endSize=8;curved=0;rounded=0;exitX=0;exitY=0.98;exitDx=0;exitDy=0;exitPerimeter=0;entryX=1.1;entryY=0.983;entryDx=0;entryDy=0;entryPerimeter=0;" parent="1" edge="1">
          <mxGeometry x="0.1102" relative="1" as="geometry">
            <mxPoint x="263" y="675" as="sourcePoint" />
            <mxPoint x="9" y="675.2689999999998" as="targetPoint" />
            <mxPoint as="offset" />
          </mxGeometry>
        </mxCell>
        <mxCell id="ztldwcd2v8A4NRbDK7fZ-3" value="Armazenar arquivos de mídia (capa, PDF)." style="html=1;verticalAlign=bottom;startArrow=oval;startFill=1;endArrow=block;startSize=8;curved=0;rounded=0;exitX=1;exitY=0;exitDx=0;exitDy=5;exitPerimeter=0;entryX=0;entryY=0;entryDx=0;entryDy=5;entryPerimeter=0;" parent="1" source="ylt83j8UUivnQJKnm8Q9-26" target="ylt83j8UUivnQJKnm8Q9-23" edge="1">
          <mxGeometry width="60" relative="1" as="geometry">
            <mxPoint x="616" y="395" as="sourcePoint" />
            <mxPoint x="676" y="395" as="targetPoint" />
          </mxGeometry>
        </mxCell>
        <mxCell id="ztldwcd2v8A4NRbDK7fZ-4" value="" style="endArrow=none;dashed=1;html=1;rounded=0;entryX=0.5;entryY=1;entryDx=0;entryDy=0;" parent="1" source="ylt83j8UUivnQJKnm8Q9-14" target="ylt83j8UUivnQJKnm8Q9-3" edge="1">
          <mxGeometry width="50" height="50" relative="1" as="geometry">
            <mxPoint x="556" y="680" as="sourcePoint" />
            <mxPoint x="646" y="263" as="targetPoint" />
          </mxGeometry>
        </mxCell>
        <mxCell id="ztldwcd2v8A4NRbDK7fZ-5" value="" style="endArrow=none;dashed=1;html=1;rounded=0;entryX=0.5;entryY=1;entryDx=0;entryDy=0;" parent="1" source="ylt83j8UUivnQJKnm8Q9-19" target="ylt83j8UUivnQJKnm8Q9-14" edge="1">
          <mxGeometry width="50" height="50" relative="1" as="geometry">
            <mxPoint x="556" y="680" as="sourcePoint" />
            <mxPoint x="548" y="-40" as="targetPoint" />
          </mxGeometry>
        </mxCell>
        <mxCell id="ylt83j8UUivnQJKnm8Q9-14" value="" style="html=1;points=[[0,0,0,0,5],[0,1,0,0,-5],[1,0,0,0,5],[1,1,0,0,-5]];perimeter=orthogonalPerimeter;outlineConnect=0;targetShapes=umlLifeline;portConstraint=eastwest;newEdgeStyle={&quot;curved&quot;:0,&quot;rounded&quot;:0};" parent="1" vertex="1">
          <mxGeometry x="543" y="61" width="10" height="107" as="geometry" />
        </mxCell>
        <mxCell id="ztldwcd2v8A4NRbDK7fZ-6" value="" style="endArrow=none;dashed=1;html=1;rounded=0;entryX=0.5;entryY=1;entryDx=0;entryDy=0;" parent="1" source="ylt83j8UUivnQJKnm8Q9-26" edge="1">
          <mxGeometry width="50" height="50" relative="1" as="geometry">
            <mxPoint x="547" y="668" as="sourcePoint" />
            <mxPoint x="547" y="306" as="targetPoint" />
            <Array as="points" />
          </mxGeometry>
        </mxCell>
        <mxCell id="ylt83j8UUivnQJKnm8Q9-19" value="" style="html=1;points=[[0,0,0,0,5],[0,1,0,0,-5],[1,0,0,0,5],[1,1,0,0,-5]];perimeter=orthogonalPerimeter;outlineConnect=0;targetShapes=umlLifeline;portConstraint=eastwest;newEdgeStyle={&quot;curved&quot;:0,&quot;rounded&quot;:0};" parent="1" vertex="1">
          <mxGeometry x="543" y="252" width="10" height="70" as="geometry" />
        </mxCell>
        <mxCell id="ylt83j8UUivnQJKnm8Q9-26" value="" style="html=1;points=[[0,0,0,0,5],[0,1,0,0,-5],[1,0,0,0,5],[1,1,0,0,-5]];perimeter=orthogonalPerimeter;outlineConnect=0;targetShapes=umlLifeline;portConstraint=eastwest;newEdgeStyle={&quot;curved&quot;:0,&quot;rounded&quot;:0};" parent="1" vertex="1">
          <mxGeometry x="543" y="453" width="10" height="131" as="geometry" />
        </mxCell>
        <mxCell id="ztldwcd2v8A4NRbDK7fZ-8" value="" style="endArrow=none;dashed=1;html=1;rounded=0;entryX=0.5;entryY=1;entryDx=0;entryDy=0;" parent="1" source="ylt83j8UUivnQJKnm8Q9-12" target="ylt83j8UUivnQJKnm8Q9-2" edge="1">
          <mxGeometry width="50" height="50" relative="1" as="geometry">
            <mxPoint x="267" y="705" as="sourcePoint" />
            <mxPoint x="267.47" y="-44" as="targetPoint" />
          </mxGeometry>
        </mxCell>
        <mxCell id="ztldwcd2v8A4NRbDK7fZ-10" value="" style="endArrow=none;dashed=1;html=1;rounded=0;entryX=0.5;entryY=1;entryDx=0;entryDy=0;" parent="1" source="ylt83j8UUivnQJKnm8Q9-17" target="ylt83j8UUivnQJKnm8Q9-12" edge="1">
          <mxGeometry width="50" height="50" relative="1" as="geometry">
            <mxPoint x="267" y="705" as="sourcePoint" />
            <mxPoint x="267.47" y="-44" as="targetPoint" />
          </mxGeometry>
        </mxCell>
        <mxCell id="ylt83j8UUivnQJKnm8Q9-12" value="" style="html=1;points=[[0,0,0,0,5],[0,1,0,0,-5],[1,0,0,0,5],[1,1,0,0,-5]];perimeter=orthogonalPerimeter;outlineConnect=0;targetShapes=umlLifeline;portConstraint=eastwest;newEdgeStyle={&quot;curved&quot;:0,&quot;rounded&quot;:0};" parent="1" vertex="1">
          <mxGeometry x="263" y="14" width="10" height="152" as="geometry" />
        </mxCell>
        <mxCell id="ylt83j8UUivnQJKnm8Q9-17" value="" style="html=1;points=[[0,0,0,0,5],[0,1,0,0,-5],[1,0,0,0,5],[1,1,0,0,-5]];perimeter=orthogonalPerimeter;outlineConnect=0;targetShapes=umlLifeline;portConstraint=eastwest;newEdgeStyle={&quot;curved&quot;:0,&quot;rounded&quot;:0};" parent="1" vertex="1">
          <mxGeometry x="263" y="220" width="10" height="455" as="geometry" />
        </mxCell>
        <mxCell id="ztldwcd2v8A4NRbDK7fZ-12" value="" style="endArrow=none;dashed=1;html=1;rounded=0;entryX=0.5;entryY=1;entryDx=0;entryDy=0;" parent="1" source="ylt83j8UUivnQJKnm8Q9-21" edge="1">
          <mxGeometry width="50" height="50" relative="1" as="geometry">
            <mxPoint x="837" y="406" as="sourcePoint" />
            <mxPoint x="837.4100000000001" y="-40" as="targetPoint" />
          </mxGeometry>
        </mxCell>
        <mxCell id="ylt83j8UUivnQJKnm8Q9-21" value="" style="html=1;points=[[0,0,0,0,5],[0,1,0,0,-5],[1,0,0,0,5],[1,1,0,0,-5]];perimeter=orthogonalPerimeter;outlineConnect=0;targetShapes=umlLifeline;portConstraint=eastwest;newEdgeStyle={&quot;curved&quot;:0,&quot;rounded&quot;:0};" parent="1" vertex="1">
          <mxGeometry x="833" y="314" width="10" height="53" as="geometry" />
        </mxCell>
        <mxCell id="ztldwcd2v8A4NRbDK7fZ-15" value="" style="endArrow=none;dashed=1;html=1;rounded=0;entryX=0.5;entryY=1;entryDx=0;entryDy=0;" parent="1" source="ylt83j8UUivnQJKnm8Q9-23" edge="1">
          <mxGeometry width="50" height="50" relative="1" as="geometry">
            <mxPoint x="1158.41" y="315" as="sourcePoint" />
            <mxPoint x="1158.8200000000002" y="-39" as="targetPoint" />
          </mxGeometry>
        </mxCell>
        <mxCell id="ztldwcd2v8A4NRbDK7fZ-18" value="" style="endArrow=none;dashed=1;html=1;rounded=0;entryX=0.5;entryY=1;entryDx=0;entryDy=0;" parent="1" edge="1">
          <mxGeometry width="50" height="50" relative="1" as="geometry">
            <mxPoint x="2.870000000000001" y="14" as="sourcePoint" />
            <mxPoint x="2.870000000000001" y="-40" as="targetPoint" />
          </mxGeometry>
        </mxCell>
        <mxCell id="ztldwcd2v8A4NRbDK7fZ-19" value="" style="endArrow=none;dashed=1;html=1;rounded=0;entryX=0.5;entryY=1;entryDx=0;entryDy=0;" parent="1" edge="1">
          <mxGeometry width="50" height="50" relative="1" as="geometry">
            <mxPoint x="547" y="666" as="sourcePoint" />
            <mxPoint x="547.41" y="587" as="targetPoint" />
            <Array as="points" />
          </mxGeometry>
        </mxCell>
        <mxCell id="ztldwcd2v8A4NRbDK7fZ-20" value="" style="endArrow=none;dashed=1;html=1;rounded=0;entryX=0.5;entryY=1;entryDx=0;entryDy=0;" parent="1" edge="1">
          <mxGeometry width="50" height="50" relative="1" as="geometry">
            <mxPoint x="838" y="666" as="sourcePoint" />
            <mxPoint x="838.21" y="364" as="targetPoint" />
          </mxGeometry>
        </mxCell>
        <mxCell id="ztldwcd2v8A4NRbDK7fZ-22" value="" style="endArrow=none;dashed=1;html=1;rounded=0;" parent="1" edge="1">
          <mxGeometry width="50" height="50" relative="1" as="geometry">
            <mxPoint x="1160" y="662" as="sourcePoint" />
            <mxPoint x="1159" y="554" as="targetPoint" />
          </mxGeometry>
        </mxCell>
      </root>
    </mxGraphModel>
  </diagram>
</mxfile>
